<svg xmlns="http://www.w3.org/2000/svg" width="40" height="40" viewBox="0 0 40 40">
  <g id="Group_10" data-name="Group 10" transform="translate(-120 -7661.09)">
    <circle id="BG" cx="20" cy="20" r="20" transform="translate(120 7661.09)" fill="#fff" opacity="0.102"/>
    <g id="Group_4" data-name="Group 4">
      <path id="Subtraction_1" data-name="Subtraction 1" d="M10,20c-2.679,0-3.037-.012-4.124-.061a7.363,7.363,0,0,1-2.427-.464A5.113,5.113,0,0,1,.525,16.549,7.4,7.4,0,0,1,.06,14.122C.012,13.051,0,12.7,0,10,0,7.326.012,6.967.06,5.876A7.34,7.34,0,0,1,.525,3.449,4.919,4.919,0,0,1,1.678,1.678,4.909,4.909,0,0,1,3.451.525,7.4,7.4,0,0,1,5.878.06C6.95.011,7.272,0,10,0s3.049.011,4.122.06a7.422,7.422,0,0,1,2.428.464A4.879,4.879,0,0,1,18.32,1.678a4.92,4.92,0,0,1,1.155,1.771,7.48,7.48,0,0,1,.464,2.427C19.988,6.967,20,7.326,20,10s-.012,3.031-.06,4.122a7.47,7.47,0,0,1-.464,2.427,5.124,5.124,0,0,1-2.925,2.925,7.356,7.356,0,0,1-2.428.464C13.035,19.988,12.677,20,10,20ZM10,6.666A3.33,3.33,0,1,0,13.326,10,3.334,3.334,0,0,0,10,6.666Z" transform="translate(129.334 7670.424)" fill="#fff" stroke="rgba(0,0,0,0)" stroke-miterlimit="10" stroke-width="1"/>
      <circle id="Op_component_3" data-name="Op component 3" cx="1.2" cy="1.2" r="1.2" transform="translate(143.47 7673.89)" fill="#303036"/>
    </g>
  </g>
</svg>
