<svg xmlns="http://www.w3.org/2000/svg" width="208" height="45.091" viewBox="0 0 208 45.091">
  <g id="Group_3" data-name="Group 3" transform="translate(-120 -7481)">
    <path id="Rectangle_106" data-name="Rectangle 106" d="M134.545,7495.545A14.545,14.545,0,0,0,120,7481h0v30.545a14.546,14.546,0,0,0,14.546,14.546h0Z" fill="#7b61ff"/>
    <path id="Rectangle_108" data-name="Rectangle 108" d="M140.363,7498.455a7.272,7.272,0,0,1,7.273-7.273h0v17.455a7.272,7.272,0,0,1-7.273,7.272h0Z" fill="#7b61ff"/>
    <path id="Rectangle_107" data-name="Rectangle 107" d="M168,7481h0a14.545,14.545,0,0,0-14.546,14.545v30.546h0A14.546,14.546,0,0,0,168,7511.545Z" fill="#7b61ff"/>
    <text id="TECHLERATE" transform="translate(180 7511.945)" fill="#fff" font-size="24" font-family="Poppins-Bold, Poppins" font-weight="700"><tspan x="0" y="0">TECHLERATE</tspan></text>
  </g>
</svg>
