<svg xmlns="http://www.w3.org/2000/svg" width="1198.841" height="47.667" viewBox="0 0 1198.841 47.667">
    <path d="M268.52 1039.416a4.78 4.78 0 0 1-2.352-.617l-10.712-5.972a4.48 4.48 0 0 1 0-7.891l10.712-5.972a4.78 4.78 0 0 1 2.354-.618 4.884 4.884 0 0 1 3.285 1.284 4.427 4.427 0 0 1 1.437 3.28v.811a1.01 1.01 0 0 0 1.025.991 1.033 1.033 0 0 0 .51-.134l9.278-5.173a.972.972 0 0 0 0-1.713l-9.278-5.173a1.032 1.032 0 0 0-.51-.134 1.01 1.01 0 0 0-1.025.991v1.525a.876.876 0 0 1-.889.86.9.9 0 0 1-.445-.117l-2.023-1.128a1.541 1.541 0 0 1-.8-1.341v-.612a4.426 4.426 0 0 1 1.438-3.28 4.885 4.885 0 0 1 3.285-1.284 4.777 4.777 0 0 1 2.351.617l10.713 5.971a4.476 4.476 0 0 1 0 7.887l-10.713 5.972a4.773 4.773 0 0 1-2.351.618 4.883 4.883 0 0 1-3.285-1.284 4.427 4.427 0 0 1-1.437-3.28v-.81a1.01 1.01 0 0 0-1.025-.992 1.036 1.036 0 0 0-.51.134l-9.278 5.174a.973.973 0 0 0 0 1.714l9.278 5.174a1.035 1.035 0 0 0 .51.134 1.01 1.01 0 0 0 1.025-.991v-1.525a.876.876 0 0 1 .889-.86.9.9 0 0 1 .445.117l2.023 1.13a1.547 1.547 0 0 1 .8 1.341v.613a4.424 4.424 0 0 1-1.438 3.279 4.888 4.888 0 0 1-3.287 1.284zm-69.616-.721h-4.417v-23.725h4.279v2.184a7 7 0 0 1 5.5-2.486 8.232 8.232 0 0 1 5.955 2.484 9.061 9.061 0 0 1-.04 12.395 8.361 8.361 0 0 1-6.02 2.5 6.81 6.81 0 0 1-5.255-2.253v8.9zm4.632-20.129a4.7 4.7 0 0 0-3.345 1.358 4.818 4.818 0 0 0-1.388 3.451 4.733 4.733 0 1 0 4.733-4.809zm38.038 20.075h-4.557l4.243-9.151-7.173-14.519h5.165l4.2 9.7 4.306-9.7h4.625zm-18.959-6.594a8.345 8.345 0 0 1-8.385-8.671 8.777 8.777 0 0 1 2.471-6.206 8.362 8.362 0 0 1 6.019-2.5 7.044 7.044 0 0 1 5.394 2.419v-2.118h4.28v16.808h-4.279v-2.186a7.074 7.074 0 0 1-5.5 2.452zm.728-13.48a4.7 4.7 0 0 0-3.344 1.358 4.818 4.818 0 0 0-1.388 3.451 4.72 4.72 0 0 0 4.732 4.808 4.809 4.809 0 0 0 0-9.617zm-52.01 13.48a9.165 9.165 0 0 1-6.442-2.416 8.941 8.941 0 0 1 .093-12.5 9.244 9.244 0 0 1 6.457-2.467 8.554 8.554 0 0 1 8.942 8.742 5.468 5.468 0 0 1-.1 1.076h-13.336a4.386 4.386 0 0 0 1.489 2.882 4.943 4.943 0 0 0 7.107-1.168h4.49c-1.057 3.604-4.391 5.849-8.7 5.849zm.035-13.681a4.565 4.565 0 0 0-2.832.916 4.272 4.272 0 0 0-1.551 2.579h8.7a3.876 3.876 0 0 0-1.465-2.567 4.638 4.638 0 0 0-2.852-.929zm-41.982 13.681a8.345 8.345 0 0 1-8.386-8.671 8.777 8.777 0 0 1 2.47-6.206 8.365 8.365 0 0 1 6.022-2.5 7.041 7.041 0 0 1 5.394 2.419v-2.118h4.28v16.808h-4.282v-2.186a7.073 7.073 0 0 1-5.498 2.452zm.727-13.48a4.7 4.7 0 0 0-3.344 1.358 4.818 4.818 0 0 0-1.388 3.451 4.72 4.72 0 0 0 4.732 4.808 4.809 4.809 0 0 0 0-9.617zm56.8 13.215h-4.418v-16.807h4.279v1.644a4.373 4.373 0 0 1 3.758-1.949 4.477 4.477 0 0 1 1.878.378v4.289a6.1 6.1 0 0 0-2.682-.793 3.16 3.16 0 0 0-.406.026c-1.469.192-2.414 1.472-2.408 3.261v9.95zm-26.087 0h-2.263c-3.485 0-4.906-1.422-4.906-4.91v-8.237h-5.649v13.143h-4.388v-13.143h-2.435v-3.666h2.435v-1.593c0-1.745.415-2.9 1.3-3.63a6.206 6.206 0 0 1 4.019-1.008h2.111V1012h-.962c-1.523 0-2.089.529-2.089 1.951v1.022h5.648v-4.1h4.387v4.1h2.749v3.666h-2.749v7.461c0 1.476.465 1.949 1.913 1.949h.871v3.731z" style="fill:#979797" transform="translate(-121 -997.166)" data-name="Company logo/Afterpay"/>
    <g data-name="Company logo/Plaid">
        <path data-name="Vector" d="m424.982 1044.833-5.038-5.165-5.123 5.081-14.547-4.07-3.8-14.757 5.123-5.081-5.059-5.165 4.027-14.693 14.61-3.817 5.06 5.166 5.123-5.081 14.547 4.068 3.794 14.757-5.123 5.081 5.039 5.165-4.027 14.7-14.609 3.815zm2.783-12.965-4.912 4.87 3.373 3.458 7.695-2.024-6.156-6.3zm-15.58-.148-6.24 6.219 7.653 2.129 3.415-3.394-4.828-4.955zm23.422-7.653-4.912 4.87c.364.375 6.139 6.306 6.177 6.324l2.108-7.736-3.373-3.458zm-31.117-.253-3.415 3.395c.234.918 1.974 7.745 2 7.779l6.24-6.219-4.828-4.955zm15.558.127-4.912 4.87 4.828 4.954 4.912-4.869-4.828-4.955zm7.843-7.8-4.912 4.871c.28.289 4.793 4.939 4.828 4.955l4.912-4.871-4.828-4.954zm-15.559-.126-4.911 4.87 4.828 4.954 4.912-4.87-4.828-4.955zm24.751-9-6.261 6.22c.285.293 4.813 4.938 4.849 4.954l3.415-3.394-2-7.781zm-16.908 1.223-4.912 4.871 4.829 4.955 4.912-4.871-4.829-4.955zm-16.887-1.5-2.129 7.737 3.372 3.436 4.912-4.87-6.156-6.3zm23.233-4.828-3.415 3.394.328.335c1.106 1.137 4.472 4.6 4.479 4.639l6.261-6.219-7.653-2.15zm-12.607-.127-7.695 2.024 6.156 6.3 4.912-4.87-3.373-3.458zm42.185 28.25h-4.322v-17.856h5.777c2.561 0 4.39.447 5.439 1.327a5.894 5.894 0 0 1 2.066 4.722 5.98 5.98 0 0 1-1.855 4.638c-1.1 1.036-2.837 1.561-5.165 1.561H456.1v5.607zm-.021-13.83v4.174h1.834a3.188 3.188 0 0 0 2.319-.7 1.831 1.831 0 0 0 .484-1.369c0-1.419-.979-2.109-2.993-2.109zm47.793 13.818h-4.511v-17.861h4.511v17.86zm10.753-.008h-6.936v-17.857h5.945a10.416 10.416 0 0 1 5.565 1.286 7.682 7.682 0 0 1 2.151 2.066 9.145 9.145 0 0 1 1.6 5.5 9.291 9.291 0 0 1-2.277 6.535 7.87 7.87 0 0 1-6.048 2.469zm-2.4-13.809v9.761h1.919a4.164 4.164 0 0 0 3.246-1.2 5.313 5.313 0 0 0 1.1-3.605 5.5 5.5 0 0 0-1.117-3.668 3.974 3.974 0 0 0-3.184-1.286zm-27.955 13.809h-4.849l7.084-17.856h3.584l7.019 17.855h-4.911l-.842-2.593h-6.157l-.927 2.593zm4.027-12.313-1.855 6.115h3.689l-1.834-6.115zm-10.625 12.312h-9.719v-17.856h4.49v13.809h5.229v4.046z" style="fill:#979797" transform="translate(-121 -997.166)"/>
    </g>
    <g data-name="Company logo/GitHub">
        <path data-name="Vector" d="M654.6 1037.25a.9.9 0 0 1-.957-.933c0-.193 0-.5.005-.931V1034.936c.006-.971.015-2.3.015-3.813a4.373 4.373 0 0 0-1.274-3.493 10.685 10.685 0 0 0 5.883-2.121 6.979 6.979 0 0 0 1.976-2.755 11.819 11.819 0 0 0 .755-4.447 7.311 7.311 0 0 0-1.935-5.075 6.829 6.829 0 0 0-.189-5 1.61 1.61 0 0 0-.431-.046c-.69 0-2.227.257-4.762 1.981a17.8 17.8 0 0 0-9.441 0c-2.555-1.72-4.094-1.976-4.784-1.976a1.614 1.614 0 0 0-.408.041 6.8 6.8 0 0 0-.189 5 7.311 7.311 0 0 0-1.936 5.075 11.839 11.839 0 0 0 .752 4.437 6.989 6.989 0 0 0 1.968 2.756 10.607 10.607 0 0 0 5.872 2.13 4.017 4.017 0 0 0-1.2 2.525 5.375 5.375 0 0 1-2.149.495 3.757 3.757 0 0 1-3.35-2.053 3.811 3.811 0 0 0-2.867-1.936h-.037c-.524.008-.813.109-.859.3-.075.311.5.749.883.952a6.887 6.887 0 0 1 1.935 2.668c.566 1.59 2.028 2.431 4.226 2.431a11.836 11.836 0 0 0 2.122-.212c0 .926.009 1.827.015 2.485v.235c0 .357.006.642.006.8a.9.9 0 0 1-.982.926 1.9 1.9 0 0 1-.317-.029 18.792 18.792 0 1 1 11.991 0 1.747 1.747 0 0 1-.337.033zm92.788-4.255a7.168 7.168 0 0 1-4.612-1.212c-1.225-.974-1.82-2.559-1.82-4.846v-11.257a.384.384 0 0 1 .374-.374h4.714a.384.384 0 0 1 .374.374v10.464c0 1.75.579 2.4 2.137 2.4a5.5 5.5 0 0 0 2.865-.859V1015.7a.369.369 0 0 1 .374-.419h4.627a.4.4 0 0 1 .419.375l-.044 16.456a.359.359 0 0 1-.374.375h-2.952a.389.389 0 0 1-.353-.2 8.027 8.027 0 0 1-.175-.991 11.1 11.1 0 0 1-5.552 1.699zm-58.158 0c-3.5 0-6.132-.744-8.049-2.275a9.374 9.374 0 0 1-2.834-3.952 18.642 18.642 0 0 1-1.1-6.815 21.63 21.63 0 0 1 .966-6.885 10.173 10.173 0 0 1 2.54-4.16c1.83-1.745 4.332-2.593 7.65-2.593h.079c4.924 0 6.847 1.147 7.05 1.278a.474.474 0 0 1 .132.308l-.925 3.921a.4.4 0 0 1-.36.386.311.311 0 0 1-.081-.011l-.25-.079h-.007a13.091 13.091 0 0 0-4.524-.646 6.637 6.637 0 0 0-4.574 1.374c-1.443 1.294-2.145 3.532-2.145 6.843 0 3.222.656 5.513 1.949 6.81a5.036 5.036 0 0 0 3.734 1.341 10.193 10.193 0 0 0 2.753-.243v-5.066H688a.4.4 0 0 1-.418-.375v-4.056a.4.4 0 0 1 .418-.374h8.24a.4.4 0 0 1 .419.374v12.645c0 .055-.01.237-.132.286a13.525 13.525 0 0 1-7.295 1.964zm26.171-.022a7.651 7.651 0 0 1-4.109-.948c-1.455-.938-2.192-2.613-2.192-4.979v-7.225h-2.444a.4.4 0 0 1-.375-.419v-3a.376.376 0 0 1 .287-.373c.157-.023 2.536-.612 2.555-.617v-4.78a.274.274 0 0 1 .309-.287h4.758a.274.274 0 0 1 .309.287v4.648H718a.384.384 0 0 1 .352.375v3.745a.381.381 0 0 1-.352.419h-3.5v6.9c0 1.2.8 1.828 2.313 1.828a7.273 7.273 0 0 0 .925-.075h.019c.138-.018.247-.032.319-.033h.013a.389.389 0 0 1 .309.394v3.3a.352.352 0 0 1-.2.354 9.347 9.347 0 0 1-2.798.486zm53.51-.023a8.548 8.548 0 0 1-5.552-1.828.312.312 0 0 1 0 .037 3.767 3.767 0 0 1-.2 1.108.308.308 0 0 1-.308.176h-3.261a.414.414 0 0 1-.418-.374l.043-24.475a.385.385 0 0 1 .375-.374h4.692a.384.384 0 0 1 .374.374v8.305a9.112 9.112 0 0 1 4.447-1.163l-.022-.044a6.026 6.026 0 0 1 4.263 1.44c1.513 1.381 2.28 3.772 2.28 7.106 0 3.643-.575 6.159-1.757 7.691-1.058 1.378-2.635 2.022-4.954 2.022zm-1.415-13.73a4.968 4.968 0 0 0-.525.029 5.765 5.765 0 0 0-2.377.748v7.755a5.408 5.408 0 0 0 2.687.793h.236a2.171 2.171 0 0 0 2.162-.958c.42-.716.6-1.912.6-4 0-3.914-1.587-4.367-2.779-4.367zm-29.273 13.269h-4.692a.385.385 0 0 1-.374-.375l.043-10.463h-7.291v10.463a.385.385 0 0 1-.374.375h-4.693a.406.406 0 0 1-.374-.375v-24.475a.384.384 0 0 1 .374-.374h4.693a.384.384 0 0 1 .374.374v9.01h7.291v-9.01a.385.385 0 0 1 .375-.374h4.648a.385.385 0 0 1 .375.374v24.475a.385.385 0 0 1-.373.375zm-34.189-.023h-4.23c-.3 0-.661-.1-.661-.594V1015.7a.417.417 0 0 1 .374-.441h4.693a.384.384 0 0 1 .374.374v16.236c.003.379-.084.597-.548.597zm-2.154-18.566a3.04 3.04 0 1 1 3.02-3.04 3.034 3.034 0 0 1-3.02 3.04z" style="fill:#979797" transform="translate(-121 -997.166)"/>
    </g>
    <g data-name="Company logo/Attentive">
        <path data-name="Vector" d="M884.75 1030.767a9.713 9.713 0 0 1-2.355-6.575 9.209 9.209 0 0 1 3.129-7.234 10.447 10.447 0 0 1 6.74-2.4 9.817 9.817 0 0 1 6.664 2.477 9.662 9.662 0 0 1 3 7.381V1033H896.5l-.169-2.588a6.754 6.754 0 0 1-5.829 2.9 7.673 7.673 0 0 1-5.752-2.545zm4.484-10a4.857 4.857 0 0 0 .01 6.356 4.124 4.124 0 0 0 3.02 1.238 4.015 4.015 0 0 0 2.933-1.3 4.563 4.563 0 0 0 0-6.228 4.014 4.014 0 0 0-2.933-1.3 4.124 4.124 0 0 0-3.03 1.237zm81.207 6.472-.049-17.715H976l.049 5.319h5.079v4.636h-5.079v6.564a2.153 2.153 0 0 0 2.079 2.417 6.517 6.517 0 0 0 3.121-.611v4.514a12.077 12.077 0 0 1-4.959.9 5.644 5.644 0 0 1-5.849-6.021zm-51.46 4.358a6.1 6.1 0 0 1-1.621-4.358l-.049-17.715h5.612l.049 5.319h5.067v4.636h-5.079v6.564a2.145 2.145 0 0 0 2.08 2.417c.1.006.219.009.347.009a6.524 6.524 0 0 0 2.785-.62v4.514a11.915 11.915 0 0 1-4.958.9 5.734 5.734 0 0 1-4.233-1.663zm-13.062 0a6.1 6.1 0 0 1-1.621-4.358l-.049-17.715h5.612l.049 5.319h5.068v4.636H909.9v6.564a2.145 2.145 0 0 0 2.081 2.417c.121.006.242.01.358.01a6.559 6.559 0 0 0 2.774-.621v4.514a11.921 11.921 0 0 1-4.958.9 5.734 5.734 0 0 1-4.236-1.663zm106.867-.908a8.97 8.97 0 0 1-2.7-6.6 9.679 9.679 0 0 1 2.66-6.81 9.078 9.078 0 0 1 6.579-2.73 9.8 9.8 0 0 1 6.761 2.455 9.369 9.369 0 0 1 2.407 8.891h-12.845c.2 1.517 1.552 3.05 4.136 3.05a5.022 5.022 0 0 0 3.387-1.123l4.306 1.976a8.383 8.383 0 0 1-3.42 2.59 11.249 11.249 0 0 1-4.417.851 9.843 9.843 0 0 1-6.854-2.547zm4.12-11.075a3.753 3.753 0 0 0-1.257 2.7h7.6v-.244a3.086 3.086 0 0 0-1.079-2.446 4.116 4.116 0 0 0-2.694-.872 3.972 3.972 0 0 0-2.57.864zm-85.006 11.078a8.975 8.975 0 0 1-2.7-6.6 9.674 9.674 0 0 1 2.661-6.81 9.075 9.075 0 0 1 6.579-2.73h.013a9.786 9.786 0 0 1 6.75 2.455 9.365 9.365 0 0 1 2.4 8.891h-12.84c.2 1.517 1.552 3.05 4.136 3.05a5.017 5.017 0 0 0 3.386-1.123l4.306 1.976a9.7 9.7 0 0 1-7.836 3.442 9.854 9.854 0 0 1-6.855-2.551zm4.121-11.075a3.753 3.753 0 0 0-1.257 2.7h7.6v-.244a3.085 3.085 0 0 0-1.079-2.446 4.117 4.117 0 0 0-2.695-.872 3.975 3.975 0 0 0-2.569.861zm67.558 13.36h-5.466l-7.3-18.105h6.1l3.966 11.468 3.919-11.468h6.1l-7.305 18.1zm-19.93 0v-18.105a5.083 5.083 0 0 0 5.659 0v18.105zm-33.936 0v-18.105h5.418l.193 2.782a6.6 6.6 0 0 1 2.435-2.317 6.523 6.523 0 0 1 3.249-.806c4.294 0 7.063 3.294 7.063 7.881v10.541h-5.587v-9.662c0-2.123-1.016-3.807-3.241-3.807a4.127 4.127 0 0 0-3.92 4v9.491zm82.523-14.909a2.7 2.7 0 0 1-2.9-2.806 2.8 2.8 0 0 1 .768-2.071 2.965 2.965 0 0 1 2.111-.809h.056a2.674 2.674 0 0 1 2.871 2.782 2.727 2.727 0 0 1-2.855 2.9zm.033-5.2h-.026a2.212 2.212 0 0 0-2.273 2.391 2.174 2.174 0 0 0 2.272 2.319h.062a2.219 2.219 0 0 0 2.262-2.367 2.186 2.186 0 0 0-2.269-2.344zm-.365 3.857h-.724l-.024-2.977 1.33-.024a.992.992 0 0 1 .954 1.485 1 1 0 0 1-.373.37l.749 1.145h-.846l-.628-1.025h-.436v1.025zm-.023-1.635h.513a.4.4 0 0 0 .123-.019.41.41 0 0 0 .157-.085.437.437 0 0 0 .109-.142.423.423 0 0 0 .041-.174v-.024a.38.38 0 0 0-.142-.241.373.373 0 0 0-.228-.078H1031.881zM983 1010.137a3.49 3.49 0 1 1 3.483 3.27 3.3 3.3 0 0 1-3.483-3.27z" style="fill:#979797" transform="translate(-121 -997.166)"/>
    </g>
    <g data-name="Company logo/Basecamp">
        <path data-name="Vector" d="M1164.637 1040.781a25.187 25.187 0 0 1-18.831-8.456 2.085 2.085 0 0 1-.4-2.112v-.012l.01-.028.038-.1c.031-.084.077-.2.137-.354.14-.354.321-.794.51-1.238a45.618 45.618 0 0 1 1.81-3.768 21.722 21.722 0 0 1 2.675-3.986 5.878 5.878 0 0 1 4.243-2.349h.014a5.244 5.244 0 0 1 3.167 1.179 16.368 16.368 0 0 1 2.061 1.924l.069.073.122.129a16.7 16.7 0 0 0 1.321 1.314l.119.1c.135-.139.286-.31.446-.509a24.609 24.609 0 0 0 1.965-2.972 63.085 63.085 0 0 0 2.202-4.16l.071-.149.009-.019.056-.118.035-.073.008-.017a2.1 2.1 0 0 1 1.894-1.206 2.088 2.088 0 0 1 1.888 2.974v.01l-.011.023-.041.085-.042.088-.107.223a72.963 72.963 0 0 1-2.345 4.439 28.7 28.7 0 0 1-2.325 3.495 8.883 8.883 0 0 1-1.351 1.389 3.508 3.508 0 0 1-2.188.858 4.785 4.785 0 0 1-2.955-1.251 20.412 20.412 0 0 1-1.678-1.649l-.051-.054-.14-.149a12.7 12.7 0 0 0-1.52-1.443 1.6 1.6 0 0 0-.656-.351h-.007a3.129 3.129 0 0 0-1.14.939 17.653 17.653 0 0 0-2.13 3.209 41.506 41.506 0 0 0-1.641 3.419c-.052.121-.1.238-.148.347a21.019 21.019 0 0 0 14.836 6.13h.378a32.068 32.068 0 0 0 10.767-1.636 12.511 12.511 0 0 0 6.336-4.546 40.952 40.952 0 0 0-4.944-16.2 19.832 19.832 0 0 0-5.28-6.156 11.5 11.5 0 0 0-6.879-2.31 16.657 16.657 0 0 0-7.217 1.579 18.254 18.254 0 0 0-5.521 4.148 35.789 35.789 0 0 0-6.968 12.474 2.088 2.088 0 0 1-4.044-.455 2.063 2.063 0 0 1 .105-.933 40.1 40.1 0 0 1 7.837-13.917 20.776 20.776 0 0 1 15.808-7.07 15.54 15.54 0 0 1 9.341 3.113 24.048 24.048 0 0 1 6.426 7.427 45.12 45.12 0 0 1 5.554 18.674 2.071 2.071 0 0 1-.274 1.188 16.135 16.135 0 0 1-8.847 6.908 35.718 35.718 0 0 1-12.183 1.89zm140.763-4.581v-18.736h3.869v2.192a5.181 5.181 0 0 1 4.436-2.51h.01a5.781 5.781 0 0 1 4.342 1.843 7.69 7.69 0 0 1 1.78 5.3v.22c0 4.367-2.4 7.188-6.123 7.188h-.2a4.9 4.9 0 0 1-4.248-2.453v6.955h-3.866zm7.139-16.091a3.106 3.106 0 0 0-2.432 1.055 4.756 4.756 0 0 0-.972 3.157v.208c0 2.677 1.222 4.152 3.441 4.152 2.125 0 3.295-1.457 3.295-4.1v-.257a4.805 4.805 0 0 0-.936-3.167 3.021 3.021 0 0 0-2.393-1.044zm-68.725 11.658a7.6 7.6 0 0 1-5.27-1.895 6.93 6.93 0 0 1-2.065-5.22v-.209a6.919 6.919 0 0 1 6.911-7.254h.253a6.854 6.854 0 0 1 4.748 1.677 7.115 7.115 0 0 1 2.047 5.414v1.065h-10a4.143 4.143 0 0 0 .977 2.705 3.284 3.284 0 0 0 2.476.969c1.665 0 2.645-.655 2.914-1.948h3.674a4.964 4.964 0 0 1-2.073 3.475 7.865 7.865 0 0 1-4.589 1.225zm-.188-11.854a3.2 3.2 0 0 0-3.191 3.062h6.245c-.118-2.031-1.139-3.062-3.037-3.062zm27.523 11.844c-.134 0-.255 0-.369-.014a5.157 5.157 0 0 1-3.233-.978 3.818 3.818 0 0 1-1.4-3.172 3.726 3.726 0 0 1 2.021-3.463 10.9 10.9 0 0 1 5.216-1.02h1.58v-.551c0-1.818-.656-2.56-2.265-2.56a2.067 2.067 0 0 0-.273-.017 2.1 2.1 0 0 0-1.881 1.158 2.082 2.082 0 0 0-.222.831h-3.674c.225-3.036 2.506-4.776 6.258-4.776a6.653 6.653 0 0 1 4.2 1.166 4.813 4.813 0 0 1 1.644 4v9.086H1275v-1.678a4.714 4.714 0 0 1-3.844 1.986zm2.35-6.407c-2.456 0-3.551.608-3.551 1.972 0 1.09.722 1.69 2.033 1.69h.127a3.3 3.3 0 0 0 2.079-.655 2.22 2.22 0 0 0 .831-1.784h-.049v-1.225zm-59.183 6.407c-.142 0-.262 0-.369-.014-2.914 0-4.654-1.552-4.654-4.151a3.726 3.726 0 0 1 2.022-3.463 10.939 10.939 0 0 1 5.227-1.019h1.568v-.552a2.986 2.986 0 0 0-.472-1.9 2.152 2.152 0 0 0-1.794-.66 1.9 1.9 0 0 0-.248-.014 2.1 2.1 0 0 0-.6.088 2.072 2.072 0 0 0-.751.4 2.109 2.109 0 0 0-.75 1.494h-3.674c.225-3.036 2.511-4.776 6.27-4.776a6.644 6.644 0 0 1 4.2 1.166 4.824 4.824 0 0 1 1.633 4v9.086h-3.76v-1.678a4.719 4.719 0 0 1-1.846 1.542 4.657 4.657 0 0 1-1.999.455zm2.3-6.407c-2.448 0-3.54.608-3.54 1.972 0 .771.351 1.69 2.021 1.69h.125a3.262 3.262 0 0 0 2.06-.655 2.226 2.226 0 0 0 .828-1.784v-1.225zm41.98 6.393a7.249 7.249 0 0 1-5.089-1.837 6.988 6.988 0 0 1-2.05-5.253v-.209a6.92 6.92 0 0 1 6.915-7.255c.091 0 .183 0 .274.005a7.46 7.46 0 0 1 4.361 1.205 5.491 5.491 0 0 1 2.2 4.208h-3.674a2.571 2.571 0 0 0-1.811-2.276 2.539 2.539 0 0 0-.758-.113 2.588 2.588 0 0 0-.26.013 3.015 3.015 0 0 0-2.414 1.081 4.8 4.8 0 0 0-.917 3.083v.208c0 2.772 1.181 4.237 3.416 4.237h.163a2.816 2.816 0 0 0 2.813-2.7h3.491c-.213 3.46-2.766 5.607-6.656 5.607zm-28.975 0c-3.728 0-5.942-1.7-6.074-4.666h3.6c.177 1.372.932 1.984 2.448 1.984 1.434 0 2.193-.529 2.193-1.531 0-.917-.74-1.346-2.829-1.641-3.8-.582-5.144-1.72-5.144-4.347a3.851 3.851 0 0 1 1.69-3.193 6.5 6.5 0 0 1 3.821-1.155c3.511 0 5.448 1.454 5.755 4.323h-3.539a1.888 1.888 0 0 0-2.18-1.678c-1.235 0-1.972.536-1.972 1.433 0 .844.677 1.228 2.683 1.518a9.054 9.054 0 0 1 4.014 1.255 3.5 3.5 0 0 1 1.4 3.118 4.062 4.062 0 0 1-1.551 3.411 6.991 6.991 0 0 1-4.312 1.173zm-28.142-.269h-7.837v-19.064h7.494c4.126 0 6.307 1.694 6.307 4.9v.159a3.917 3.917 0 0 1-3.086 4.078 4.187 4.187 0 0 1 3.809 4.494v.111a4.8 4.8 0 0 1-1.695 3.973 7.909 7.909 0 0 1-4.989 1.352zm-3.624-8.463v5.474l2.952-.012c2.056 0 3.1-.906 3.1-2.694v-.111c0-1.813-1.051-2.658-3.307-2.658zm0-7.654v4.9l2.584-.025a3.383 3.383 0 0 0 2.232-.586 2.282 2.282 0 0 0 .671-1.863v-.11c0-1.6-.9-2.315-2.927-2.315zm92.348 16.091v-8.5c0-1.69-.754-2.584-2.181-2.584h-.124a2.584 2.584 0 0 0-2.569 2.857v8.229h-3.857v-13.984h3.857v2.13a4.764 4.764 0 0 1 4.162-2.45h.1c.1-.008.2-.012.305-.012a3.844 3.844 0 0 1 3.589 2.461 5.525 5.525 0 0 1 4.588-2.45h.1a4.345 4.345 0 0 1 3.259 1.276 5.707 5.707 0 0 1 1.32 4.051v8.927h-3.832v-8.45c0-1.715-.738-2.584-2.192-2.584h-.112a2.594 2.594 0 0 0-.975.191 2.624 2.624 0 0 0-.909.624 2.586 2.586 0 0 0-.687 2.042v8.228z" style="fill:#979797" transform="translate(-121 -997.166)"/>
    </g>
</svg>
