<svg id="Group_139385" data-name="Group 139385" xmlns="http://www.w3.org/2000/svg" width="33.271" height="54.002" viewBox="0 0 33.271 54.002">
  <path id="Path_3457" data-name="Path 3457" d="M250.377,219.408a16.636,16.636,0,0,0-16.522,16.749c.064,9.186,16.892,37.253,16.892,37.253s16.441-28.3,16.378-37.481A16.636,16.636,0,0,0,250.377,219.408Zm.165,24.092a7.972,7.972,0,1,1,7.917-8.026A7.972,7.972,0,0,1,250.541,243.5Z" transform="translate(-233.854 -219.407)" fill="#7b61ff"/>
  <path id="Path_3458" data-name="Path 3458" d="M244.747,274.965c5.32,12.609,10.462,23.2,10.462,23.2s15.739-33.44,20.209-52.349C270.484,261.495,255.178,275.166,244.747,274.965Z" transform="translate(-243.991 -244.161)" fill="#7b61ff" opacity="0.62" style="mix-blend-mode: soft-light;isolation: isolate"/>
</svg>
