<svg xmlns="http://www.w3.org/2000/svg" width="211" height="46.646" viewBox="0 0 211 46.646">
  <g id="Group_139403" data-name="Group 139403" transform="translate(-120 -7464)">
    <g id="Group_139401" data-name="Group 139401" transform="translate(0 4)">
      <path id="Rectangle_106" data-name="Rectangle 106" d="M134.545,7495.545A14.545,14.545,0,0,0,120,7481h0v30.545a14.546,14.546,0,0,0,14.546,14.546h0Z" transform="translate(0 -20)" fill="#7b61ff"/>
      <path id="Rectangle_108" data-name="Rectangle 108" d="M140.363,7498.455a7.272,7.272,0,0,1,7.273-7.273h0v17.455a7.272,7.272,0,0,1-7.273,7.272h0Z" transform="translate(0 -20)" fill="#7b61ff"/>
      <path id="Rectangle_107" data-name="Rectangle 107" d="M168,7481h0a14.545,14.545,0,0,0-14.546,14.545v30.546h0A14.546,14.546,0,0,0,168,7511.545Z" transform="translate(0 -20)" fill="#7b61ff"/>
    </g>
    <g id="Group_139402" data-name="Group 139402" transform="translate(0 -2.945)">
      <text id="TECHLERATE" transform="translate(180 7491.945)" fill="#ffffff" font-size="22" font-family="Poppins-Bold, Poppins" font-weight="700"><tspan x="0" y="0">TECHLERATE
      </tspan></text>
      <text id="Technology_Pvt._Ltd." data-name="Technology Pvt. Ltd." transform="translate(180 7509.591)" fill="#fff" font-size="12" font-family="OpenSans-Medium, Open Sans" font-weight="500" letter-spacing="0.16em"><tspan x="0" y="0">Technology Pvt. Ltd.</tspan></text>
    </g>
  </g>
</svg>
