<svg xmlns="http://www.w3.org/2000/svg" width="40" height="40" viewBox="0 0 40 40">
  <g id="Group_7" data-name="Group 7" transform="translate(-232 -7661.09)">
    <circle id="BG" cx="20" cy="20" r="20" transform="translate(232 7661.09)" fill="#fff" opacity="0.102"/>
    <path id="Path" d="M251.711,7677.913l.043.7-.723-.086a11.825,11.825,0,0,1-6.878-3.328l-.954-.932-.246.688a4.091,4.091,0,0,0,.9,4.246c.578.6.448.688-.549.33a1.73,1.73,0,0,0-.679-.158,5.067,5.067,0,0,0,.52,1.922,4.638,4.638,0,0,0,1.98,1.836l.708.33-.838.015c-.809,0-.838.014-.752.315a4.344,4.344,0,0,0,2.7,2.352l.9.3-.78.459a8.247,8.247,0,0,1-3.873,1.062,4.3,4.3,0,0,0-1.185.115,11.069,11.069,0,0,0,2.789,1.262,12.387,12.387,0,0,0,9.48-1.062,12.529,12.529,0,0,0,4.812-5.565,14.587,14.587,0,0,0,.983-4.3c0-.66.044-.747.853-1.535a9.468,9.468,0,0,0,1.011-1.1c.144-.272.13-.272-.607-.028-1.229.431-1.4.373-.8-.273a4.158,4.158,0,0,0,.983-1.535c0-.043-.217.029-.462.157a8.078,8.078,0,0,1-1.272.488l-.781.244-.708-.473a5.849,5.849,0,0,0-1.229-.631,5.019,5.019,0,0,0-2.529.057A4.107,4.107,0,0,0,251.711,7677.913Z" fill="#fff"/>
  </g>
</svg>
