<svg xmlns="http://www.w3.org/2000/svg" width="40" height="40" viewBox="0 0 40 40">
  <g id="Group_7" data-name="Group 7" transform="translate(-232 -7661.09)">
    <circle id="BG" cx="20" cy="20" r="20" transform="translate(232 7661.09)" fill="#fff" opacity="0.102"/>
    <path id="Path_159578" data-name="Path 159578" d="M20.707,4.707a1,1,0,1,0-1.414-1.414L13.348,9.238,9.073,3.409A1,1,0,0,0,8.267,3H4a1,1,0,0,0-.806,1.591L9.455,13.13,3.293,19.293a1,1,0,1,0,1.414,1.414l5.945-5.945,4.275,5.829a1,1,0,0,0,.806.409H20a1,1,0,0,0,.806-1.591L14.545,10.87ZM12.37,11.286a1,1,0,0,0,.108.147L18.027,19H16.24L5.973,5H7.76Z" transform="translate(240 7669)" fill="#fff" fill-rule="evenodd"/>
  </g>
</svg>
